<svg width="25" height="22" viewBox="0 0 25 22" fill="none" xmlns="http://www.w3.org/2000/svg">
<path d="M0.78125 4.6875H21.0938C21.5254 4.6875 21.875 4.33789 21.875 3.90625V0.78125C21.875 0.349609 21.5254 0 21.0938 0H0.78125C0.349609 0 0 0.349609 0 0.78125V3.90625C0 4.33789 0.349609 4.6875 0.78125 4.6875ZM24.2188 8.59375H3.90625C3.47461 8.59375 3.125 8.94336 3.125 9.375V12.5C3.125 12.9316 3.47461 13.2812 3.90625 13.2812H24.2188C24.6504 13.2812 25 12.9316 25 12.5V9.375C25 8.94336 24.6504 8.59375 24.2188 8.59375ZM21.0938 17.1875H0.78125C0.349609 17.1875 0 17.5371 0 17.9688V21.0938C0 21.5254 0.349609 21.875 0.78125 21.875H21.0938C21.5254 21.875 21.875 21.5254 21.875 21.0938V17.9688C21.875 17.5371 21.5254 17.1875 21.0938 17.1875Z" fill="black"/>
</svg>
