<svg width="25" height="19" viewBox="0 0 25 19" fill="none" xmlns="http://www.w3.org/2000/svg">
<path d="M14.0625 3.24902V2.34375H14.8438C15.2754 2.34375 15.625 1.99414 15.625 1.5625V0.78125C15.625 0.349609 15.2754 0 14.8438 0H10.1562C9.72461 0 9.375 0.349609 9.375 0.78125V1.5625C9.375 1.99414 9.72461 2.34375 10.1562 2.34375H10.9375V3.24902C5.63916 4.00928 1.5625 8.55371 1.5625 14.0625H23.4375C23.4375 8.55371 19.3608 4.00928 14.0625 3.24902ZM24.2188 15.625H0.78125C0.349609 15.625 0 15.9746 0 16.4062V17.9688C0 18.4004 0.349609 18.75 0.78125 18.75H24.2188C24.6504 18.75 25 18.4004 25 17.9688V16.4062C25 15.9746 24.6504 15.625 24.2188 15.625Z" fill="black"/>
</svg>
